<svg width="24" height="24" viewBox="0 0 24 24" fill="none" xmlns="http://www.w3.org/2000/svg">
<path fill-rule="evenodd" clip-rule="evenodd" d="M2.85818 21.3942L2.58005 21.1558C1.9046 20.5797 1.7854 19.5268 2.40126 18.8513L9.63262 10.5869C10.2087 9.91143 11.2617 9.79224 11.9371 10.4081L12.2153 10.6465C12.8907 11.2226 13.0099 12.2755 12.394 12.951L5.16269 21.2154C4.58656 21.8909 3.57337 21.9703 2.85818 21.3942Z" fill="white"/>
<path opacity="0.4" fill-rule="evenodd" clip-rule="evenodd" d="M8.65918 12.0164L8.52011 11.8574L7.40759 13.1289L7.52679 13.2679C9.43396 15.1751 8.61944 17.1021 8.18238 17.7776L8.34131 17.5988C8.59958 17.3008 8.9969 16.8439 9.4141 16.3472C9.85116 15.5923 10.467 13.8043 8.65918 12.0164Z" fill="url(#paint0_linear_1773_36131)"/>
<path opacity="0.4" fill-rule="evenodd" clip-rule="evenodd" d="M11.0431 14.4989L11.3411 14.1612C11.361 14.1215 11.4007 14.0817 11.4206 14.042C11.1027 14.3996 10.765 14.777 10.4471 15.1545C10.6855 14.8962 10.8842 14.6777 11.0431 14.4989Z" fill="url(#paint1_radial_1773_36131)"/>
<path fill-rule="evenodd" clip-rule="evenodd" d="M12.4338 10.8445L5.20242 2.58005C4.62629 1.9046 3.57338 1.7854 2.89792 2.40126L2.61979 2.63965C1.94433 3.21578 1.82513 4.2687 2.44099 4.94415L8.53997 11.8577L8.67904 12.0166C10.4869 13.8244 9.87102 15.6124 9.41409 16.3673C9.77169 15.9501 10.1293 15.5329 10.467 15.1555C10.7849 14.778 11.1226 14.4006 11.4405 14.043C11.7583 13.6854 12.0563 13.3476 12.255 13.1291C12.9503 12.4536 13.0496 11.5199 12.4338 10.8445Z" fill="white"/>
<path fill-rule="evenodd" clip-rule="evenodd" d="M12.0365 21.3942L11.7583 21.1558C11.0829 20.5797 10.9637 19.5268 11.5795 18.8513L18.8109 10.5869C19.387 9.91143 20.4399 9.79224 21.1154 10.4081L21.3935 10.6465C22.069 11.2226 22.1882 12.2755 21.5723 12.951L14.341 21.2154C13.7648 21.8909 12.7517 21.9703 12.0365 21.3942Z" fill="white"/>
<path opacity="0.4" fill-rule="evenodd" clip-rule="evenodd" d="M17.9169 11.9363L17.7778 11.7773L16.6653 13.0488L16.7845 13.1879C18.6917 15.095 17.8771 17.0221 17.4401 17.6975L17.599 17.5187C17.8573 17.2207 18.2546 16.7638 18.6718 16.2671C19.1088 15.5122 19.7247 13.7242 17.9169 11.9363Z" fill="url(#paint2_linear_1773_36131)"/>
<path opacity="0.4" fill-rule="evenodd" clip-rule="evenodd" d="M20.2016 14.4989L20.4996 14.1612C20.5194 14.1215 20.5592 14.0817 20.579 14.042C20.2612 14.3996 19.9235 14.777 19.6056 15.1545C19.844 14.8962 20.0625 14.6777 20.2016 14.4989Z" fill="url(#paint3_radial_1773_36131)"/>
<path fill-rule="evenodd" clip-rule="evenodd" d="M21.5922 10.8445L14.3608 2.58005C13.7847 1.9046 12.7318 1.7854 12.0563 2.40126L11.7782 2.63965C11.1027 3.21578 10.9835 4.2687 11.5994 4.94415L17.6984 11.8577L17.8374 12.0166C19.6453 13.8244 19.0294 15.6124 18.5725 16.3673C18.9301 15.9501 19.2877 15.5329 19.6254 15.1555C19.9433 14.778 20.281 14.4006 20.5989 14.043C20.9167 13.6854 21.2147 13.3476 21.4134 13.1291C22.1087 12.4536 22.208 11.5199 21.5922 10.8445Z" fill="white"/>
<defs>
<linearGradient id="paint0_linear_1773_36131" x1="8.62508" y1="14.1494" x2="9.50234" y2="13.4163" gradientUnits="userSpaceOnUse">
<stop stop-color="#6F6F6F" stop-opacity="0"/>
<stop offset="1" stop-color="#8C8C8C"/>
</linearGradient>
<radialGradient id="paint1_radial_1773_36131" cx="0" cy="0" r="1" gradientUnits="userSpaceOnUse" gradientTransform="translate(7.05799 15.5316) scale(4.8438)">
<stop offset="0.4185" stop-color="#123F06" stop-opacity="0"/>
<stop offset="1" stop-color="#123F06"/>
</radialGradient>
<linearGradient id="paint2_linear_1773_36131" x1="17.8827" y1="14.0704" x2="18.7599" y2="13.3373" gradientUnits="userSpaceOnUse">
<stop stop-color="#6F6F6F" stop-opacity="0"/>
<stop offset="1" stop-color="#8C8C8C"/>
</linearGradient>
<radialGradient id="paint3_radial_1773_36131" cx="0" cy="0" r="1" gradientUnits="userSpaceOnUse" gradientTransform="translate(16.2251 15.5316) scale(4.84381 4.8438)">
<stop offset="0.4185" stop-color="#123F06" stop-opacity="0"/>
<stop offset="1" stop-color="#123F06"/>
</radialGradient>
</defs>
</svg>
