<svg version="1.2" xmlns="http://www.w3.org/2000/svg" viewBox="0 0 1280 900" width="1280" height="900">
	<title>Новый проект</title>
	<style>
		.s0 { fill: none;stroke: #ffffff } 
	</style>
	<path id="форма 5 copy" class="s0" d="m0 2.1v-1h137.2v1zm0.2-0.2h1v138.2h-1zm11.6 9.1v-1h137.2v1zm0.2-0.2h1v138.2h-1zm1267-10.8h1v138.2h-1zm0.2 0.2v1h-137.2v-1zm-14 9.7h1v138.3h-1zm0.2 0.1v1h-137.2v-1zm14.2 883.2v1h-137.2v-1zm-0.2 0.2h-1v-138.2h1zm-11.6-9.2v1h-137.2v-1zm-0.2 0.2h-1v-138.2h1zm-1266 9.8h-1v-138.2h1zm-0.2-0.2v-0.9h137.2v0.9zm12-9.7h-1v-138.2h1zm-0.2-0.2v-1h137.2v1zm544.2-435.2v-1h164.3v1zm81.6-83.2h1v165.5h-1z"/>
</svg>